<?xml version="1.0" standalone="no"?>
<!DOCTYPE svg PUBLIC "-//W3C//DTD SVG 20010904//EN"
 "http://www.w3.org/TR/2001/REC-SVG-20010904/DTD/svg10.dtd">
<svg version="1.0" xmlns="http://www.w3.org/2000/svg"
 width="800.000000pt" height="800.000000pt" viewBox="0 0 800.000000 800.000000"
 preserveAspectRatio="xMidYMid meet">
<metadata>
Created by potrace 1.11, written by Peter Selinger 2001-2013
</metadata>
<g transform="translate(0.000000,800.000000) scale(0.100000,-0.100000)"
fill="#000000" stroke="none">
<path d="M3984 7986 c-64 -15 -143 -51 -182 -82 -21 -18 -22 -24 -15 -103 5
-67 11 -89 30 -111 27 -33 94 -58 173 -66 101 -10 100 -9 100 -58 0 -24 -6
-48 -12 -53 -7 -5 -100 -31 -207 -57 -433 -105 -980 -278 -1036 -328 -52 -45
-56 -70 -100 -586 -13 -156 -25 -286 -28 -288 -2 -3 -37 -14 -77 -25 -124 -34
-182 -75 -196 -138 -20 -88 -28 -106 -71 -150 -61 -63 -109 -135 -135 -206
-20 -54 -23 -83 -26 -290 -7 -397 -6 -436 12 -505 24 -92 65 -176 119 -242 32
-39 47 -67 47 -86 0 -45 26 -120 55 -158 21 -28 72 -57 237 -139 116 -57 212
-106 214 -108 2 -1 -3 -25 -11 -52 -9 -28 -15 -90 -15 -149 -1 -127 -11 -173
-57 -244 -57 -90 -99 -180 -128 -277 -15 -49 -49 -129 -76 -176 -73 -129 -250
-498 -304 -634 -140 -353 -207 -580 -310 -1052 -3 -14 -21 -31 -46 -43 -61
-32 -116 -87 -135 -136 -32 -84 -7 -430 42 -566 8 -24 22 -92 30 -153 25 -190
59 -261 198 -416 28 -31 59 -68 69 -83 52 -76 136 20 196 223 17 58 32 105 34
106 20 9 160 120 163 130 3 8 20 17 37 20 54 12 105 46 123 83 22 47 14 123
-20 190 -25 49 -26 59 -26 214 0 188 -13 292 -38 328 -10 14 -39 39 -65 55
-25 17 -52 35 -60 40 -14 9 -14 23 -1 120 24 182 62 401 99 564 40 176 131
501 145 515 5 5 14 -8 21 -33 10 -34 8 -81 -9 -278 -12 -131 -22 -265 -22
-299 0 -119 76 -213 202 -252 l57 -17 52 -94 c60 -108 107 -164 158 -191 125
-63 617 -120 877 -100 269 20 439 98 660 301 44 41 124 101 178 134 139 85
143 91 167 221 10 60 31 217 44 349 30 286 33 307 46 300 27 -17 110 -241 155
-419 69 -270 106 -634 86 -828 -18 -171 -23 -182 -114 -271 -43 -44 -83 -89
-88 -102 -5 -13 -16 -77 -24 -142 -13 -100 -19 -121 -38 -136 -102 -83 -168
-151 -196 -205 -42 -79 -42 -121 -1 -156 52 -44 98 -58 265 -82 23 -3 40 -16
64 -50 l32 -45 -22 -107 c-26 -125 -24 -221 7 -274 19 -31 22 -33 74 -32 63 1
130 28 181 73 31 27 37 29 48 16 14 -17 60 -19 109 -5 55 15 115 74 190 184
39 57 93 130 121 162 64 74 123 194 150 304 23 95 47 351 37 391 -4 15 -27 54
-52 87 -62 82 -75 125 -86 290 -27 396 -167 923 -340 1279 -66 135 -149 266
-285 448 -50 66 -93 126 -97 132 -5 7 -15 59 -23 115 -16 108 -48 200 -87 252
-19 25 -25 49 -30 116 -14 187 -49 237 -227 330 -63 33 -108 60 -100 61 8 0
103 2 210 4 148 2 205 6 238 19 112 41 145 93 168 266 l17 125 46 40 c188 166
251 289 251 491 0 179 -38 327 -170 664 -98 251 -115 317 -155 630 -38 305
-149 868 -188 962 -9 21 -34 50 -58 67 -48 36 -228 97 -343 117 -72 13 -91 12
-215 -6 -76 -11 -206 -33 -291 -50 -85 -16 -157 -26 -161 -22 -3 4 -11 22 -17
40 -13 37 -18 33 78 57 79 20 107 34 144 74 28 29 29 33 23 97 -14 146 -56
174 -272 180 -87 2 -150 -1 -191 -10z m285 -32 c42 -5 62 -13 84 -36 16 -16
27 -31 24 -34 -3 -3 -57 0 -120 7 -139 15 -240 4 -352 -40 -41 -16 -75 -24
-75 -19 0 5 8 23 17 39 26 43 104 75 221 89 67 8 97 7 201 -6z m-107 -407 c2
-17 -3 -23 -21 -25 -19 -3 -22 0 -17 13 3 9 6 40 7 68 l1 52 13 -43 c8 -23 15
-52 17 -65z m762 2 c15 -14 86 -328 105 -459 60 -421 99 -1092 70 -1181 -7
-19 -38 -90 -69 -159 -85 -184 -95 -225 -94 -415 0 -134 4 -173 22 -240 23
-81 49 -131 35 -65 -5 19 -8 125 -8 235 0 238 9 285 95 480 86 195 84 186 77
375 -19 501 -88 1074 -162 1350 -8 30 -13 55 -11 57 4 5 105 -31 160 -57 28
-13 56 -36 67 -54 57 -92 123 -416 214 -1046 50 -350 65 -411 135 -549 77
-155 167 -418 148 -436 -14 -14 -38 9 -38 36 0 37 -33 135 -62 186 -108 189
-271 245 -392 133 -90 -83 -136 -221 -136 -404 0 -408 270 -693 477 -503 88
81 134 210 137 387 2 115 9 146 27 135 14 -9 10 -232 -5 -306 -28 -131 -107
-237 -218 -291 -350 -171 -634 132 -615 657 5 156 17 207 91 397 72 182 81
228 80 418 0 233 -62 769 -124 1080 -27 132 -43 161 -95 173 -155 34 -723 -68
-1300 -234 -274 -79 -558 -197 -625 -259 -31 -29 -30 -22 -59 -416 -18 -239
-28 -294 -53 -294 -7 0 -9 24 -4 78 3 42 15 203 27 357 11 154 24 293 28 310
14 56 71 87 307 163 520 169 963 278 1409 347 149 22 343 30 359 14z m-44
-311 c33 -156 108 -703 98 -714 -2 -2 -28 25 -57 59 -137 159 -310 269 -484
307 -65 15 -53 -6 -101 187 -15 56 -26 108 -26 116 0 11 41 21 168 41 143 23
339 52 379 55 6 1 16 -23 23 -51z m-607 -177 c15 -71 27 -133 27 -138 0 -6
-45 -10 -100 -11 l-99 -2 6 123 c3 67 8 124 10 127 6 7 84 28 109 29 19 1 23
-12 47 -128z m-213 71 c0 -22 -19 -177 -25 -207 -4 -17 -17 -23 -72 -32 -263
-46 -524 -181 -666 -346 -90 -104 -139 -157 -148 -157 -12 0 -11 116 3 312
l12 167 125 52 c166 68 357 131 566 184 194 51 205 52 205 27z m363 -296 c107
-32 202 -78 284 -140 62 -47 168 -155 159 -163 -2 -3 -63 20 -134 51 -202 85
-249 97 -393 103 -160 7 -267 -10 -512 -81 -100 -29 -183 -49 -185 -45 -2 5
11 36 29 70 38 70 104 141 158 168 144 74 412 90 594 37z m-759 -141 c-15 -26
-37 -72 -50 -103 l-22 -55 -124 -38 c-67 -21 -127 -37 -132 -36 -8 3 90 101
149 150 40 33 199 136 203 132 2 -2 -9 -24 -24 -50z m707 -92 c16 -10 42 -44
61 -81 29 -58 33 -76 36 -166 2 -56 -6 -292 -17 -526 -12 -234 -26 -535 -31
-669 -11 -267 -16 -292 -80 -364 -45 -52 -52 -54 -176 -67 -60 -6 -197 -22
-304 -35 -107 -14 -229 -29 -270 -34 -359 -43 -854 -127 -999 -171 -36 -10
-69 -16 -74 -13 -5 3 -18 24 -28 47 -21 46 -24 133 -13 367 l7 135 61 -13
c112 -24 205 6 292 92 90 90 138 223 137 380 -1 210 -96 390 -246 465 -52 26
-71 30 -140 30 l-79 0 6 32 c3 17 17 56 30 85 l25 53 38 -16 c85 -36 191 -17
668 121 366 106 504 152 541 180 19 14 52 50 74 79 37 51 42 54 120 75 158 43
303 48 361 14z m-557 -104 c-42 -44 -58 -51 -300 -124 -517 -157 -839 -234
-865 -208 -12 12 13 20 646 208 253 75 471 140 485 145 14 5 34 9 44 9 17 1
16 -3 -10 -30z m-1131 -580 c101 -52 158 -124 203 -255 36 -107 38 -256 5
-354 -28 -81 -70 -148 -123 -195 -54 -49 -95 -65 -170 -65 -105 1 -181 47
-249 153 -62 96 -84 174 -84 302 0 152 35 251 118 343 81 88 207 118 300 71z
m2754 -200 c118 -57 213 -277 213 -491 0 -152 -51 -304 -122 -363 -79 -67
-161 -55 -249 34 -197 201 -197 685 0 818 43 29 101 30 158 2z m-3164 -541
c14 -24 44 -64 66 -90 l42 -47 -8 -133 -8 -133 -38 60 c-51 82 -77 171 -84
288 -3 53 -3 97 0 97 3 0 16 -19 30 -42z m1897 -728 c110 -27 104 -34 -40 -44
-52 -4 -198 -18 -324 -32 -126 -14 -231 -22 -234 -19 -7 7 55 72 83 88 80 44
350 48 515 7z m-630 -71 c-24 -33 -62 -52 -94 -47 -16 2 -5 12 44 40 36 21 66
38 68 38 2 0 -6 -14 -18 -31z m544 -82 c-36 -40 -66 -110 -88 -201 -23 -96
-47 -131 -101 -150 -44 -15 -45 -14 -45 7 1 32 38 198 48 211 5 6 19 38 32 71
35 89 29 86 154 93 l28 2 -28 -33z m-174 6 c0 -4 -13 -43 -30 -87 -16 -45 -38
-123 -49 -174 -10 -51 -22 -96 -26 -100 -3 -4 -45 -9 -91 -11 l-84 -3 0 33 c0
66 49 296 67 319 2 2 48 10 101 16 53 6 100 12 105 13 4 0 7 -2 7 -6z m-273
-90 c-9 -32 -23 -107 -31 -167 -8 -59 -17 -110 -20 -113 -2 -3 -50 -7 -106
-10 l-102 -6 7 74 c10 114 46 259 64 260 9 0 57 6 106 13 50 7 92 11 94 9 2
-1 -3 -28 -12 -60z m-252 5 c-11 -53 -25 -148 -31 -220 -7 -85 -10 -88 -93
-88 l-44 0 7 98 c4 53 11 113 16 132 4 19 11 47 14 62 6 28 21 33 99 37 34 1
37 -1 32 -21z m-179 -35 c-4 -21 -9 -91 -12 -155 -7 -130 -11 -136 -62 -93
-27 23 -30 31 -41 141 -6 64 -9 119 -6 122 5 6 72 18 109 21 16 1 17 -4 12
-36z m1196 -158 c-2 -105 -12 -465 -23 -801 -31 -1018 -33 -1184 -16 -1299 9
-55 14 -101 12 -103 -6 -7 -423 18 -575 34 -273 28 -460 60 -670 116 -194 51
-263 86 -296 151 -19 37 -22 -11 35 752 39 524 81 1126 81 1173 0 21 4 23 42
20 l42 -3 16 -67 c26 -106 59 -131 179 -130 99 1 525 20 619 28 120 10 166 59
198 206 l17 77 41 5 c200 25 273 33 286 32 13 -1 15 -28 12 -191z m733 -317
c41 -35 75 -97 99 -177 9 -30 16 -57 16 -59 0 -3 -22 16 -49 41 -54 50 -84 62
-136 54 -50 -8 -81 -33 -107 -85 -19 -40 -23 -63 -22 -148 0 -100 0 -102 32
-139 42 -47 162 -241 162 -261 0 -2 -18 -13 -40 -24 -55 -28 -142 -27 -200 3
-79 39 -138 143 -160 281 -16 101 12 243 72 359 30 61 107 137 163 163 72 34
125 32 170 -8z m-2315 -268 c-28 -369 -42 -510 -50 -510 -12 0 -39 123 -50
225 -12 113 1 253 32 354 20 66 76 186 83 179 2 -2 -5 -114 -15 -248z m2302
54 c59 -31 127 -87 139 -116 6 -16 18 -32 26 -37 11 -5 1 -13 -34 -26 -26 -9
-68 -28 -93 -41 l-45 -25 55 50 c50 46 53 50 30 51 -14 0 -40 -9 -58 -20 -18
-11 -36 -20 -40 -20 -6 0 -78 88 -95 116 -7 12 57 84 74 84 5 0 24 -7 41 -16z
m253 -261 c25 -32 72 -100 105 -150 l59 -93 -52 0 c-29 0 -79 -7 -111 -15 -33
-9 -60 -14 -61 -13 -10 12 -155 254 -155 259 0 10 65 49 98 59 57 17 70 12
117 -47z m-2724 -74 c9 -78 8 -90 -13 -149 -13 -36 -27 -65 -32 -65 -5 0 -23
25 -40 56 l-30 56 48 97 c27 53 50 95 52 93 3 -2 9 -42 15 -88z m2862 -206
c-44 -3 -53 -7 -53 -23 0 -17 9 -19 68 -22 l67 -3 52 -105 c29 -58 70 -155 92
-215 l39 -111 -92 4 c-50 2 -108 0 -128 -6 l-36 -10 -37 102 c-21 55 -55 142
-76 191 -50 119 -50 116 -6 129 43 12 50 24 25 40 -18 11 -48 -1 -118 -45
l-35 -23 19 22 c11 12 46 35 79 52 51 25 71 30 126 28 63 -2 64 -2 14 -5z
m-2969 -132 c-9 -20 -27 -64 -41 -97 l-26 -62 -43 15 c-24 8 -44 21 -44 28 0
11 74 197 87 218 3 5 23 -8 44 -29 l38 -37 -15 -36z m-106 -246 c3 -3 -12 -69
-34 -147 l-40 -143 -48 -3 c-27 -2 -54 -1 -61 2 -10 4 -1 42 36 153 26 81 49
150 49 152 0 5 92 -8 98 -14z m3307 -139 c38 -12 34 -13 -65 -12 -93 0 -112
-3 -165 -27 -48 -22 -55 -23 -35 -7 66 53 180 72 265 46z m25 -56 c34 -9 37
-14 62 -92 15 -46 36 -119 47 -163 18 -73 71 -339 71 -357 0 -4 -16 -8 -36 -8
-45 0 -41 -17 12 -48 30 -18 33 -22 14 -18 -14 2 -72 10 -130 16 -103 12 -146
8 -255 -25 -11 -3 3 6 30 20 28 13 70 27 95 30 215 28 243 45 72 45 l-120 0
-7 103 c-8 128 -30 277 -56 387 -11 47 -21 89 -22 95 -5 22 159 33 223 15z
m-3436 -139 c7 -11 -18 -21 -54 -21 -29 0 -45 12 -33 24 10 9 81 7 87 -3z m-6
-188 c-11 -76 -21 -152 -24 -169 l-4 -31 -86 -7 c-47 -4 -88 -5 -90 -3 -4 3
12 66 77 310 l10 37 67 0 68 0 -18 -137z m904 -185 c29 -6 55 -13 57 -14 6 -5
40 -179 35 -183 -8 -9 -92 31 -113 53 -13 14 -34 54 -47 90 -27 76 -28 75 68
54z m433 -72 c77 -8 172 -18 211 -21 l72 -7 7 -70 c3 -38 9 -77 12 -86 6 -13
-9 -14 -128 -8 -133 7 -421 40 -452 52 -9 3 -21 22 -26 43 -15 54 -30 125 -31
137 0 7 32 5 98 -7 53 -10 160 -24 237 -33z m-1365 3 c28 -6 49 -13 47 -15 -2
-3 -55 -1 -118 2 -69 5 -106 10 -94 15 30 11 107 10 165 -2z m2210 -38 c-98
-83 -263 -144 -423 -157 l-84 -7 -6 34 c-4 19 -9 57 -13 85 l-6 51 213 -4
c161 -3 229 0 274 10 33 8 64 15 70 16 5 0 -6 -12 -25 -28z m-2221 -61 c5 -24
9 -45 8 -46 -1 0 -50 -5 -110 -10 l-107 -9 6 45 c3 25 10 49 13 53 9 9 163 25
173 18 4 -3 11 -26 17 -51z m3399 -35 c43 16 115 16 188 0 44 -9 82 -20 85
-23 4 -4 10 -45 14 -91 8 -95 19 -89 -89 -51 -32 12 -105 25 -163 30 -58 5
-107 11 -108 12 -2 2 1 27 6 57 9 57 41 109 47 76 3 -11 9 -14 20 -10z m-3308
-100 c0 -17 -73 -34 -185 -43 -142 -11 -202 -29 -298 -87 -50 -30 -55 -32 -42
-11 15 22 78 72 123 95 57 30 169 50 285 50 64 1 117 -1 117 -4z m-40 -234 c0
-117 -5 -176 -24 -273 -13 -67 -27 -145 -31 -173 -13 -89 -73 -179 -150 -227
-42 -25 -54 -23 -106 22 l-46 39 23 68 c31 89 32 196 4 287 -18 56 -32 78 -95
146 -41 44 -75 88 -75 99 0 24 58 74 125 106 80 39 152 54 268 54 l107 1 0
-149z m3524 115 c63 -19 117 -56 140 -96 l18 -32 -33 7 c-72 16 -137 47 -188
90 l-53 45 35 0 c18 0 55 -6 81 -14z m-109 -231 c138 -13 274 -68 341 -136 35
-35 38 -43 35 -86 -4 -73 -38 -234 -67 -315 -59 -166 -142 -267 -252 -308 -52
-20 -242 -42 -242 -28 0 3 -11 65 -25 139 -31 164 -42 356 -26 458 13 80 50
179 94 248 23 36 31 42 54 38 16 -2 55 -7 88 -10z m-3802 -125 c29 -59 32 -73
32 -160 0 -69 -5 -104 -18 -130 l-17 -35 4 43 c4 38 2 42 -19 42 -21 0 -25 9
-45 93 -12 50 -24 115 -26 142 l-6 50 21 -25 c11 -14 23 -32 26 -41 6 -19 55
-44 55 -28 0 22 -31 67 -69 102 -24 22 -41 46 -41 59 0 20 3 19 36 -13 19 -18
50 -63 67 -99z m543 -55 c59 -111 79 -184 69 -252 l-7 -46 -55 7 c-78 9 -131
39 -150 84 -13 31 -14 49 -6 110 11 77 66 206 85 200 6 -2 35 -49 64 -103z
m2684 -354 c11 -52 18 -96 16 -98 -2 -3 -40 1 -85 7 -54 8 -81 17 -81 25 0 18
123 182 126 170 2 -6 12 -52 24 -104z m-3170 -60 c60 -48 63 -57 74 -173 l6
-73 -25 30 c-33 40 -79 128 -110 210 -28 73 -27 73 55 6z m296 -84 c9 -9 -23
-131 -48 -181 -23 -47 -56 -86 -73 -86 -8 0 -56 242 -55 280 0 7 168 -5 176
-13z m3247 -244 c22 -3 37 -11 37 -20 0 -21 -35 -86 -67 -123 -29 -35 -100
-90 -116 -90 -10 0 -3 62 17 143 8 29 17 65 20 81 6 26 10 28 39 22 18 -4 49
-9 70 -13z m243 -35 c-14 -24 -34 -53 -44 -65 -25 -28 -82 -63 -105 -63 -16 0
-18 6 -12 43 17 110 15 106 49 112 109 18 131 21 135 19 2 -2 -8 -22 -23 -46z"/>
<path d="M3710 6301 c-88 -28 -140 -60 -208 -124 -79 -77 -144 -199 -162 -308
-15 -86 -8 -221 14 -292 57 -181 196 -325 360 -372 80 -23 219 -17 298 14 160
62 284 216 322 403 30 145 14 277 -51 408 -107 218 -362 339 -573 271z m284
-70 c178 -87 285 -288 273 -511 -16 -302 -250 -525 -503 -481 -81 15 -118 31
-184 80 -102 76 -169 189 -196 328 -38 191 24 386 163 514 90 84 160 110 289
106 80 -2 99 -7 158 -36z"/>
<path d="M3730 6181 c-54 -11 -137 -60 -180 -107 -75 -81 -120 -204 -120 -327
0 -230 131 -419 312 -449 211 -36 398 167 400 432 0 154 -39 259 -136 356 -45
44 -74 65 -111 77 -65 21 -122 27 -165 18z m159 -70 c49 -26 104 -87 139 -158
51 -102 52 -98 -29 -109 l-71 -10 7 85 7 84 -103 -7 c-56 -3 -105 -8 -107 -10
-2 -3 -9 -42 -14 -88 -6 -46 -13 -85 -15 -88 -2 -2 -28 -7 -56 -10 l-52 -5 -3
-80 c-2 -44 0 -95 3 -112 6 -33 6 -33 65 -33 65 0 61 6 76 -104 l7 -48 86 7
c129 10 134 12 127 49 -3 17 -8 50 -12 74 l-7 42 67 0 66 0 -15 -36 c-47 -113
-148 -205 -242 -219 -78 -13 -167 63 -214 182 -21 52 -23 75 -23 223 -1 151 1
170 23 224 15 37 43 79 75 113 52 53 52 53 114 53 42 0 75 -6 101 -19z"/>
<path d="M3205 5210 c-223 -35 -412 -131 -544 -277 -68 -75 -139 -206 -148
-270 -5 -37 -2 -46 25 -73 39 -39 53 -39 333 5 288 44 420 61 599 79 517 52
663 78 705 128 28 33 33 82 11 114 -21 30 -148 115 -242 163 -95 47 -227 93
-339 116 -94 20 -315 28 -400 15z m290 -35 c135 -9 345 -74 475 -147 95 -54
171 -111 186 -140 39 -75 -47 -109 -356 -142 -446 -48 -546 -60 -765 -92 -132
-19 -280 -42 -329 -50 -102 -17 -129 -14 -151 20 -14 22 -14 28 5 79 79 210
285 383 535 447 78 20 244 39 295 34 14 -2 61 -6 105 -9z"/>
<path d="M3180 5085 c-174 -33 -290 -93 -405 -209 -70 -70 -145 -179 -133
-191 2 -3 108 11 235 30 301 46 582 81 765 96 145 12 174 23 97 35 l-39 7 0
78 c0 44 3 79 8 79 4 -1 23 -9 42 -18 33 -16 35 -21 41 -75 10 -88 15 -91 140
-71 57 9 110 19 118 24 10 5 -7 20 -58 50 -102 61 -230 114 -351 145 -132 33
-342 43 -460 20z m133 -67 c3 -18 9 -72 12 -119 l7 -86 -57 -7 c-32 -3 -60 -4
-62 -2 -3 2 -7 59 -10 125 l-6 121 55 0 c55 0 56 0 61 -32z m182 -76 c6 -57 8
-105 5 -107 -3 -2 -34 -5 -70 -7 l-65 -3 -3 113 -3 113 63 -3 63 -3 10 -103z
m-330 -23 c4 -61 3 -114 -1 -119 -5 -5 -30 -11 -56 -15 l-48 -7 -2 76 c-5 170
-6 160 27 167 75 16 72 21 80 -102z m489 79 c3 -18 7 -58 10 -89 l4 -57 -36
-6 c-86 -14 -88 -13 -96 55 -3 34 -6 77 -6 95 l0 34 60 0 c59 0 59 0 64 -32z
m-630 -160 l7 -68 -30 0 c-16 0 -36 -3 -45 -6 -14 -5 -16 7 -16 95 l0 102 33
14 32 13 6 -41 c3 -23 9 -72 13 -109z m918 51 c-4 -4 -31 -9 -59 -13 l-53 -7
0 46 0 46 60 -33 c33 -18 56 -35 52 -39z m-1047 -26 c14 -109 14 -106 -27
-113 -43 -8 -48 -1 -48 68 0 36 6 52 27 74 15 15 30 28 34 28 4 0 11 -26 14
-57z m-115 -83 c0 -35 -3 -40 -23 -40 -13 0 -26 3 -30 6 -7 7 34 74 46 74 4 0
7 -18 7 -40z"/>
<path d="M2473 5849 c-232 -114 -225 -609 9 -730 49 -25 127 -25 177 0 104 53
162 180 162 356 0 269 -177 459 -348 374z m152 -43 c23 -14 53 -42 68 -63 33
-48 69 -133 63 -148 -2 -7 -52 -17 -123 -24 -65 -6 -136 -14 -157 -17 l-39 -6
6 -97 c9 -145 -6 -134 168 -125 117 5 149 4 149 -6 0 -24 -60 -118 -95 -149
-120 -105 -240 16 -261 264 -13 158 37 332 108 375 43 26 62 25 113 -4z"/>
<path d="M5378 5605 c-60 -33 -98 -142 -98 -285 0 -151 42 -274 115 -338 76
-67 160 -31 207 87 29 75 31 256 4 346 -47 159 -140 237 -228 190z m105 -56
c28 -22 80 -123 92 -177 6 -27 3 -36 -13 -48 -16 -11 -20 -29 -24 -96 -3 -46
-11 -96 -17 -112 l-12 -29 -23 23 c-65 60 -90 206 -53 303 10 26 22 47 27 47
5 0 24 -27 42 -60 33 -60 50 -71 56 -34 4 28 -53 102 -83 110 -59 15 -102 -76
-92 -194 11 -121 58 -212 111 -212 27 0 63 36 76 76 9 25 9 24 4 -11 -7 -49
-34 -103 -68 -134 l-26 -24 -38 30 c-46 37 -86 109 -102 184 -17 81 -9 254 14
299 42 80 81 98 129 59z m104 -331 c-2 -18 -4 -4 -4 32 0 36 2 50 4 33 2 -18
2 -48 0 -65z"/>
<path d="M3447 3729 c-230 -4 -420 -9 -422 -11 -2 -2 -25 -269 -50 -593 -25
-325 -52 -669 -60 -765 -8 -96 -15 -177 -15 -181 0 -14 148 -71 256 -99 209
-54 488 -86 835 -97 l217 -6 6 314 c3 173 8 569 12 882 l6 567 -184 -2 c-100
-1 -371 -5 -601 -9z m714 -514 c-1 -253 -4 -621 -8 -818 l-6 -358 -106 5 c-58
3 -169 8 -246 11 -179 8 -421 38 -555 70 -146 35 -260 74 -267 92 -5 13 15
290 82 1132 14 167 26 306 29 308 4 4 957 21 1039 19 l38 -1 0 -460z"/>
<path d="M3096 3508 c-3 -29 -15 -186 -26 -348 -11 -162 -29 -416 -40 -565
-11 -148 -20 -279 -20 -291 0 -19 12 -23 128 -43 272 -48 597 -81 793 -81 l79
0 0 683 0 684 -182 6 c-99 4 -304 7 -454 7 l-273 0 -5 -52z m80 -110 c-56
-882 -65 -987 -83 -1012 -20 -28 -33 -33 -33 -12 0 18 35 522 60 851 11 149
20 273 20 278 0 4 10 7 21 7 21 0 22 -2 15 -112z m719 97 l70 -2 0 -584 0
-584 -120 3 c-187 5 -664 58 -683 76 -6 6 42 805 59 985 6 58 13 109 16 114 4
7 110 7 297 2 160 -5 323 -9 361 -10z m-605 -1160 c181 -27 359 -44 522 -51
157 -7 158 -7 158 -31 0 -23 -1 -23 -124 -23 -149 0 -375 21 -594 57 l-163 26
23 24 c16 17 29 22 48 18 14 -2 72 -12 130 -20z"/>
<path d="M3310 3234 c0 -29 -3 -34 -24 -34 -22 0 -23 -4 -29 -82 -4 -46 -7
-142 -7 -214 l0 -131 38 -7 c20 -3 49 -6 65 -6 l27 0 0 -104 0 -103 31 -7 c78
-15 76 -17 84 99 6 85 10 105 22 105 14 0 15 -14 9 -104 l-6 -103 37 -7 c82
-13 83 -13 83 54 0 32 5 83 11 112 11 49 12 51 21 28 6 -14 8 -64 5 -112 l-6
-88 65 0 64 0 0 105 0 105 44 0 c80 0 76 -12 76 215 0 194 -1 204 -20 210 -12
4 -24 22 -31 45 -12 39 -12 39 -73 44 -34 3 -157 7 -273 9 l-213 4 0 -33z
m136 -158 c-3 -28 -6 -90 -6 -138 l0 -88 -40 0 -40 0 0 138 c0 76 2 141 4 143
3 3 24 3 47 1 l42 -4 -7 -52z m354 -87 l0 -142 -52 7 c-29 3 -68 6 -85 6 l-33
0 0 113 c0 163 -3 157 91 157 l79 0 0 -141z"/>
<path d="M5764 1097 c-59 -32 -76 -46 -116 -99 -100 -131 -108 -351 -17 -461
139 -168 381 -43 429 222 13 73 6 143 -21 217 -45 120 -173 176 -275 121z
m181 -100 c50 -49 65 -94 65 -188 0 -82 -23 -157 -62 -201 l-29 -33 32 65 c46
93 51 177 16 254 -21 46 -33 60 -64 72 -55 24 -99 12 -150 -38 -111 -108 -112
-335 -2 -391 32 -16 53 -16 114 0 19 5 19 4 3 -12 -9 -10 -37 -20 -65 -22
-150 -14 -231 201 -144 383 46 96 119 154 195 154 44 0 53 -4 91 -43z m-61
-81 c44 -18 66 -67 66 -148 0 -80 -37 -161 -89 -195 -42 -28 -71 -29 -104 -3
-36 29 -50 80 -45 162 6 82 43 150 98 179 41 23 33 22 74 5z"/>
<path d="M1940 944 c0 -48 3 -65 13 -62 14 5 21 69 13 105 -12 45 -26 22 -26
-43z"/>
</g>
</svg>
